<?xml version="1.0" encoding="utf-8"?>
<!-- Generator: Adobe Illustrator 17.0.1, SVG Export Plug-In . SVG Version: 6.00 Build 0)  -->
<!DOCTYPE svg PUBLIC "-//W3C//DTD SVG 1.1//EN" "http://www.w3.org/Graphics/SVG/1.1/DTD/svg11.dtd">
<svg version="1.1" id="Calque_1" xmlns="http://www.w3.org/2000/svg" xmlns:xlink="http://www.w3.org/1999/xlink" x="0px" y="0px"
	 width="576px" height="380px" viewBox="34.14 273.445 576 380" enable-background="new 34.14 273.445 576 380"
	 xml:space="preserve">
<g id="Calque_5" display="none">
	<rect x="-61" y="130.89" display="inline" fill="#EBC9F4" width="746" height="651"/>
</g>
<g id="Calque_1_1_">
	
		<image display="none" overflow="visible" opacity="0.4" enable-background="new    " width="1080" height="1920" xlink:href="58332A5E.jpeg"  transform="matrix(1 0 0 1 -242 -539.11)">
	</image>
	<g id="Plume">
		<path id="plume" fill="#F2EAF4" d="M235.539,358.35c0,0,179.469-92.237,295.301-47.906s-44.331,5.72-44.331,5.72l11.798,4.648
			c0,0-28.601,16.803-35.751,15.015c0,0-7.557-1.889-7.15-1.788c3.158,4.052-21.987,12.513-42.901,24.31
			c-47.191,8.938-93.604,7.865-93.604,7.865l-57.979-5.363L235.539,358.35z"/>
		<g id="plume_x5F_ombre">
			<g>
				<defs>
					<path id="SVGID_1_" d="M236.254,358.707c0,0,179.469-92.237,295.301-47.906s-44.331,5.72-44.331,5.72l11.798,4.648
						c0,0-28.601,16.803-35.751,15.015c0,0-7.557-1.889-7.15-1.788c3.158,4.052-21.987,12.513-42.901,24.311
						c-47.191,8.938-93.604,7.865-93.604,7.865l-57.979-5.363L236.254,358.707z"/>
				</defs>
				<clipPath id="SVGID_2_">
					<use xlink:href="#SVGID_1_"  overflow="visible"/>
				</clipPath>
				<path clip-path="url(#SVGID_2_)" fill="#DACEDB" d="M277.725,349.77c0,0,134.423,9.653,133.708-8.223
					s-3.218-15.373-12.87-21.093c-9.653-5.72,69.714,23.953,70.071,2.86c0.358-21.093-8.58-18.948-13.228-20.02
					c-4.648-1.073,107.967,25.383,80.797-2.503c-27.171-27.886,29.316-38.968,44.331,11.44s-2.503,122.267-33.248,118.692
					c-30.746-3.575-197.344-38.968-197.344-38.968l-78.014-32.592C271.927,359.363,286.204,356.54,277.725,349.77z"/>
			</g>
		</g>
	</g>
	<g id="sad" display="none">
		<path id="plume_1_" display="inline" fill="#F2EAF4" d="M241.355,354.072c0,0,201.653-7.27,287.686,82.065
			s-42.563-13.652-42.563-13.652l8.706,9.219c0,0-33.03,3.063-38.743-1.593c0,0-6.039-4.92-5.713-4.656
			c1.138,5.01-25.22,1.989-49.164,3.785c-46.519-11.954-88.081-32.64-88.081-32.64l-50.21-29.483L241.355,354.072z"/>
		<g id="plume_x5F_ombre_1_" display="inline">
			<g>
				<defs>
					<path id="SVGID_3_" d="M241.85,354.699c0,0,201.653-7.27,287.686,82.065s-42.563-13.652-42.563-13.652l8.706,9.219
						c0,0-33.03,3.063-38.743-1.593c0,0-6.039-4.92-5.713-4.656c1.138,5.01-25.22,1.989-49.165,3.786
						c-46.519-11.954-88.081-32.64-88.081-32.64l-50.21-29.483L241.85,354.699z"/>
				</defs>
				<clipPath id="SVGID_4_">
					<use xlink:href="#SVGID_3_"  overflow="visible"/>
				</clipPath>
				<path clip-path="url(#SVGID_4_)" fill="#DACEDB" d="M283.19,364.224c0,0,117.593,65.837,124.539,49.351
					c6.946-16.487,3.617-15.284-2.692-24.562c-6.309-9.279,52.938,51.297,62.221,32.353c9.284-18.943,0.281-20.798-3.471-23.743
					c-3.752-2.946,86.961,68.84,74.209,32.054c-12.753-36.787,43.092-22.825,35.274,29.187s-54.201,109.625-80.516,93.329
					C466.437,535.897,330.65,433.09,330.65,433.09l-56.782-62.643C273.867,370.446,287.991,373.955,283.19,364.224z"/>
			</g>
		</g>
	</g>
	<ellipse fill="#AF469B" cx="227.041" cy="489.068" rx="152.361" ry="135.138"/>
	<g id="Calque_2">
		<g>
			<defs>
				<path id="SVGID_5_" d="M87.531,571.424c0,0,132.278,75.792,205.924-35.036s-34.321-169.458-52.196-180.184
					s213.074-12.87,235.955,209.499S226.959,707.277,226.959,707.277L87.531,571.424z"/>
			</defs>
			<clipPath id="SVGID_6_">
				<use xlink:href="#SVGID_5_"  overflow="visible"/>
			</clipPath>
			<ellipse clip-path="url(#SVGID_6_)" fill="#932C85" cx="229.73" cy="489.068" rx="152.361" ry="135.138"/>
		</g>
	</g>
	<g id="globuleux">
		
			<ellipse transform="matrix(-0.4085 -0.9128 0.9128 -0.4085 -151.0072 749.0266)" fill="#FFFFFF" cx="167.199" cy="423.443" rx="14.554" ry="22.119"/>
		
			<ellipse transform="matrix(-0.4085 -0.9128 0.9128 -0.4085 -151.7583 748.1766)" cx="166.548" cy="423.262" rx="13.035" ry="19.811"/>
		
			<ellipse transform="matrix(-0.4085 0.9128 -0.9128 -0.4085 789.1342 335.4356)" fill="#FFFFFF" cx="285.878" cy="423.416" rx="14.554" ry="22.119"/>
		
			<ellipse transform="matrix(-0.4085 0.9128 -0.9128 -0.4085 789.0277 334.9742)" cx="285.974" cy="423.151" rx="12.96" ry="19.696"/>
	</g>
	<g id="yeux" display="none">
		
			<ellipse transform="matrix(-0.4085 -0.9128 0.9128 -0.4085 -151.0422 749.0311)" display="inline" fill="#FFFFFF" cx="167.183" cy="423.457" rx="14.554" ry="22.119"/>
		
			<ellipse transform="matrix(-0.4085 -0.9128 0.9128 -0.4085 -145.4231 747.6901)" display="inline" cx="169.558" cy="420.966" rx="10.943" ry="16.632"/>
		
			<ellipse transform="matrix(-0.4085 0.9128 -0.9128 -0.4085 789.1238 335.4694)" display="inline" fill="#FFFFFF" cx="285.862" cy="423.43" rx="14.554" ry="22.119"/>
		
			<ellipse transform="matrix(-0.4085 0.9128 -0.9128 -0.4085 782.8775 334.5348)" display="inline" cx="283.041" cy="420.938" rx="10.943" ry="16.632"/>
	</g>
	<g>
		<ellipse fill="#E84392" cx="146.131" cy="452.374" rx="11.976" ry="4.29"/>
		<ellipse fill="#E84392" cx="306.925" cy="448.084" rx="11.976" ry="4.29"/>
	</g>
	<g display="none">
		<path display="inline" d="M191.879,430.489c-1.26,1.279-3.317,1.294-4.596,0.035l-32.059-31.579
			c-1.279-1.26-1.294-3.317-0.035-4.596l0,0c1.26-1.279,3.317-1.294,4.596-0.035l32.059,31.579
			C193.123,427.152,193.139,429.21,191.879,430.489L191.879,430.489z"/>
		<path display="inline" d="M193.623,428.208c-0.328-1.765-2.025-2.929-3.79-2.601l-44.241,8.229
			c-1.765,0.328-2.929,2.025-2.601,3.79l0,0c0.328,1.765,2.025,2.929,3.79,2.601l44.241-8.229
			C192.787,431.669,193.951,429.972,193.623,428.208L193.623,428.208z"/>
	</g>
	<g display="none">
		<path display="inline" d="M262.958,430.489c1.26,1.279,3.317,1.294,4.596,0.035l32.059-31.579c1.279-1.26,1.294-3.317,0.035-4.596
			l0,0c-1.26-1.279-3.317-1.294-4.596-0.035l-32.059,31.579C261.714,427.152,261.698,429.21,262.958,430.489L262.958,430.489z"/>
		<path display="inline" d="M261.214,428.208c0.328-1.765,2.025-2.929,3.79-2.601l44.241,8.229c1.765,0.328,2.929,2.025,2.601,3.79
			l0,0c-0.328,1.765-2.025,2.929-3.79,2.601l-44.241-8.229C262.05,431.669,260.886,429.972,261.214,428.208L261.214,428.208z"/>
	</g>
</g>
<g id="smile">
	<g display="none">
		<path display="inline" fill="#FFFDFF" d="M254.674,464.775c0,0-0.011,0.292-0.076,0.798c-0.08,0.492-0.146,1.262-0.334,2.146
			c-0.079,0.456-0.196,0.932-0.316,1.458c-0.134,0.535-0.424,1.089-0.678,1.71c-0.552,1.2-1.275,2.675-2.226,3.933
			c-0.467,0.664-0.999,1.319-1.548,2.026c-0.563,0.688-1.261,1.262-1.941,1.933c-1.364,1.337-3.069,2.425-4.892,3.508
			c-0.915,0.538-1.932,0.904-2.943,1.339c-0.511,0.203-1.018,0.438-1.548,0.612c-0.542,0.136-1.086,0.273-1.632,0.411
			c-2.178,0.662-4.502,0.768-6.808,0.912c-1.153-0.085-2.305-0.171-3.454-0.256c-0.286-0.028-0.573-0.042-0.856-0.083l-0.838-0.191
			c-0.555-0.131-1.109-0.261-1.66-0.391c-0.548-0.136-1.096-0.259-1.632-0.412c-0.518-0.208-1.034-0.414-1.546-0.62
			c-1.011-0.431-2.033-0.788-2.939-1.346c-1.831-1.068-3.524-2.174-4.89-3.507c-0.343-0.324-0.681-0.644-1.014-0.959
			c-0.328-0.315-0.66-0.607-0.923-0.977c-0.55-0.705-1.085-1.354-1.55-2.02c-0.982-1.273-1.59-2.673-2.137-3.845
			c-0.249-0.611-0.518-1.131-0.671-1.692c-0.156-0.557-0.298-1.058-0.395-1.531c-0.225-0.917-0.299-1.694-0.382-2.185
			c-0.067-0.505-0.074-0.79-0.074-0.79l0.763-0.646c0,0,0.618,0.616,1.7,1.695c0.269,0.269,0.568,0.567,0.892,0.891
			c0.329,0.319,0.735,0.61,1.139,0.95c0.84,0.644,1.701,1.477,2.81,2.157c0.537,0.362,1.097,0.738,1.676,1.128
			c0.574,0.397,1.244,0.679,1.889,1.04c1.278,0.756,2.754,1.266,4.237,1.884c0.746,0.299,1.552,0.46,2.341,0.703
			c0.398,0.111,0.798,0.223,1.2,0.336c0.412,0.067,0.826,0.134,1.242,0.201l1.251,0.205c0.417,0.081,0.837,0.136,1.265,0.138
			c0.85,0.041,1.703,0.082,2.556,0.123c1.704-0.089,3.419-0.109,5.071-0.47c0.415-0.069,0.829-0.138,1.241-0.207
			c0.409-0.08,0.803-0.221,1.201-0.327c0.79-0.241,1.589-0.425,2.343-0.7c1.477-0.633,2.96-1.128,4.236-1.888
			c0.646-0.358,1.308-0.655,1.891-1.036c0.578-0.391,1.137-0.769,1.674-1.131c1.11-0.688,1.963-1.496,2.794-2.141
			c0.404-0.337,0.799-0.627,1.137-0.943c0.33-0.33,0.633-0.633,0.906-0.907c1.095-1.095,1.72-1.721,1.72-1.721L254.674,464.775z"/>
	</g>
	<path display="none" fill="#FFFFFF" stroke="#FFFFFF" stroke-miterlimit="10" d="M205.151,464.433h49.157
		c0,0-9.308,48.79-22.975,48.79C217.667,513.223,205.151,464.433,205.151,464.433z"/>
	<g display="none">
		<path display="inline" fill="#FFFDFF" d="M253.946,485.561c0,0-0.625-0.626-1.72-1.721c-0.273-0.274-0.576-0.577-0.906-0.907
			c-0.338-0.316-0.733-0.606-1.137-0.943c-0.831-0.645-1.684-1.453-2.794-2.141c-0.537-0.362-1.096-0.74-1.674-1.131
			c-0.583-0.381-1.245-0.678-1.891-1.036c-1.276-0.76-2.759-1.255-4.236-1.888c-0.754-0.275-1.553-0.459-2.343-0.7
			c-0.398-0.106-0.792-0.247-1.201-0.327c-0.412-0.069-0.826-0.138-1.241-0.207c-1.652-0.361-3.367-0.381-5.071-0.47
			c-0.853,0.041-1.706,0.082-2.556,0.123c-0.428,0.002-0.848,0.057-1.265,0.138l-1.251,0.205c-0.416,0.067-0.83,0.134-1.242,0.201
			c-0.402,0.113-0.802,0.225-1.2,0.336c-0.789,0.243-1.595,0.404-2.341,0.703c-1.483,0.618-2.959,1.128-4.237,1.884
			c-0.645,0.361-1.315,0.643-1.889,1.04c-0.579,0.39-1.139,0.766-1.676,1.128c-1.109,0.68-1.97,1.513-2.81,2.157
			c-0.404,0.34-0.81,0.631-1.139,0.95c-0.324,0.324-0.623,0.622-0.892,0.891c-1.082,1.079-1.7,1.695-1.7,1.695l-0.763-0.646
			c0,0,0.007-0.285,0.074-0.79c0.083-0.491,0.157-1.268,0.382-2.185c0.097-0.473,0.239-0.974,0.395-1.531
			c0.153-0.561,0.422-1.081,0.671-1.692c0.547-1.172,1.155-2.572,2.137-3.845c0.465-0.666,1-1.315,1.55-2.02
			c0.263-0.37,0.595-0.662,0.923-0.977c0.333-0.315,0.671-0.635,1.014-0.959c1.366-1.333,3.059-2.439,4.89-3.507
			c0.906-0.558,1.928-0.915,2.939-1.346c0.512-0.206,1.028-0.412,1.546-0.62c0.536-0.153,1.084-0.276,1.632-0.412
			c0.551-0.13,1.105-0.26,1.66-0.391l0.838-0.191c0.283-0.041,0.57-0.055,0.856-0.083c1.149-0.085,2.301-0.171,3.454-0.256
			c2.306,0.144,4.63,0.25,6.808,0.912c0.546,0.138,1.09,0.275,1.632,0.411c0.53,0.174,1.037,0.409,1.548,0.612
			c1.011,0.435,2.028,0.801,2.943,1.339c1.823,1.083,3.528,2.171,4.892,3.508c0.68,0.671,1.378,1.245,1.941,1.933
			c0.549,0.707,1.081,1.362,1.548,2.026c0.951,1.258,1.674,2.733,2.226,3.933c0.254,0.621,0.544,1.175,0.678,1.71
			c0.12,0.526,0.237,1.002,0.316,1.458c0.188,0.884,0.254,1.654,0.334,2.146c0.065,0.506,0.076,0.798,0.076,0.798L253.946,485.561z"
			/>
	</g>
	<path id="choc" fill="#FFFFFF" d="M241.489,472.445c0,11.046-5.573,20-12.448,20c-6.875,0-12.448-8.954-12.448-20
		s9.599-20,12.448-20S241.489,461.399,241.489,472.445z"/>
	<path id="blasé" display="none" fill="#FFFFFF" d="M252.972,461.945c0,1.933-1.567,3.5-3.5,3.5h-39.5c-1.933,0-3.5-1.567-3.5-3.5
		l0,0c0-1.933,1.567-3.5,3.5-3.5h39.5C251.405,458.445,252.972,460.012,252.972,461.945L252.972,461.945z"/>
</g>
</svg>
