<?xml version="1.0" encoding="utf-8"?>
<!-- Generator: Adobe Illustrator 17.0.1, SVG Export Plug-In . SVG Version: 6.00 Build 0)  -->
<!DOCTYPE svg PUBLIC "-//W3C//DTD SVG 1.1//EN" "http://www.w3.org/Graphics/SVG/1.1/DTD/svg11.dtd">
<svg version="1.1" id="Calque_1" xmlns="http://www.w3.org/2000/svg" xmlns:xlink="http://www.w3.org/1999/xlink" x="0px" y="0px"
	 width="510.236px" height="510.236px" viewBox="67.022 168.327 510.236 510.236"
	 enable-background="new 67.022 168.327 510.236 510.236" xml:space="preserve">
<g id="Calque_5" display="none">
	<rect x="-51.926" y="77.73" display="inline" fill="#EBC9F4" width="746" height="651"/>
</g>
<g id="Calque_1_1_">
	<g id="Plume" display="none">
		<path id="plume" display="inline" fill="#F2EAF4" d="M244.613,305.19c0,0,179.469-92.237,295.301-47.906s-44.331,5.72-44.331,5.72
			l11.798,4.648c0,0-28.601,16.803-35.751,15.015c0,0-7.557-1.889-7.15-1.788c3.158,4.052-21.987,12.513-42.901,24.31
			c-47.191,8.938-93.604,7.865-93.604,7.865l-57.979-5.363L244.613,305.19z"/>
		<g id="plume_x5F_ombre" display="inline">
			<g>
				<defs>
					<path id="SVGID_1_" d="M245.328,305.547c0,0,179.469-92.237,295.301-47.906s-44.331,5.72-44.331,5.72l11.798,4.648
						c0,0-28.601,16.803-35.751,15.015c0,0-7.557-1.889-7.15-1.788c3.158,4.052-21.987,12.513-42.901,24.311
						c-47.191,8.938-93.604,7.865-93.604,7.865l-57.979-5.363L245.328,305.547z"/>
				</defs>
				<clipPath id="SVGID_2_">
					<use xlink:href="#SVGID_1_"  overflow="visible"/>
				</clipPath>
				<path clip-path="url(#SVGID_2_)" fill="#DACEDB" d="M286.799,296.61c0,0,134.423,9.653,133.708-8.223
					s-3.218-15.373-12.87-21.093c-9.653-5.72,69.714,23.953,70.071,2.86c0.358-21.093-8.58-18.948-13.228-20.02
					c-4.648-1.073,107.967,25.383,80.797-2.503c-27.171-27.886,29.316-38.968,44.331,11.44s-2.503,122.267-33.248,118.692
					c-30.746-3.575-197.344-38.968-197.344-38.968l-78.014-32.592C281.001,306.203,295.278,303.38,286.799,296.61z"/>
			</g>
		</g>
	</g>
	<g id="sad">
		<path id="plume_1_" fill="#F2EAF4" d="M250.429,300.913c0,0,201.653-7.27,287.686,82.065s-42.563-13.652-42.563-13.652
			l8.706,9.219c0,0-33.03,3.063-38.743-1.593c0,0-6.039-4.92-5.713-4.656c1.138,5.01-25.22,1.989-49.164,3.785
			c-46.519-11.954-88.081-32.64-88.081-32.64l-50.21-29.483L250.429,300.913z"/>
		<g id="plume_x5F_ombre_1_">
			<g>
				<defs>
					<path id="SVGID_3_" d="M250.924,301.54c0,0,201.653-7.27,287.686,82.065s-42.563-13.652-42.563-13.652l8.706,9.219
						c0,0-33.03,3.063-38.743-1.593c0,0-6.039-4.92-5.713-4.656c1.138,5.01-25.22,1.989-49.165,3.786
						c-46.519-11.954-88.081-32.64-88.081-32.64l-50.211-29.483L250.924,301.54z"/>
				</defs>
				<clipPath id="SVGID_4_">
					<use xlink:href="#SVGID_3_"  overflow="visible"/>
				</clipPath>
				<path clip-path="url(#SVGID_4_)" fill="#DACEDB" d="M292.264,311.065c0,0,117.593,65.837,124.539,49.351
					s3.617-15.284-2.692-24.562c-6.309-9.279,52.938,51.297,62.221,32.353c9.284-18.943,0.281-20.798-3.471-23.743
					c-3.752-2.946,86.961,68.84,74.209,32.054c-12.753-36.787,43.092-22.825,35.274,29.187
					c-7.819,52.012-54.201,109.625-80.516,93.329C475.511,482.737,339.724,379.93,339.724,379.93l-56.782-62.643
					C282.94,317.286,297.065,320.795,292.264,311.065z"/>
			</g>
		</g>
	</g>
	<ellipse fill="#AF469B" cx="236.115" cy="435.908" rx="152.361" ry="135.138"/>
	<g id="Calque_2">
		<g>
			<defs>
				<path id="SVGID_5_" d="M96.605,518.264c0,0,132.278,75.792,205.924-35.036s-34.321-169.458-52.196-180.184
					s213.074-12.87,235.955,209.499S236.033,654.117,236.033,654.117L96.605,518.264z"/>
			</defs>
			<clipPath id="SVGID_6_">
				<use xlink:href="#SVGID_5_"  overflow="visible"/>
			</clipPath>
			<ellipse clip-path="url(#SVGID_6_)" fill="#932C85" cx="238.804" cy="435.908" rx="152.361" ry="135.138"/>
		</g>
	</g>
	<g id="globuleux" display="none">
		
			<ellipse transform="matrix(-0.4085 -0.9128 0.9128 -0.4085 -89.7044 682.4345)" display="inline" fill="#FFFFFF" cx="176.273" cy="370.284" rx="14.554" ry="22.119"/>
		
			<ellipse transform="matrix(-0.4085 -0.9128 0.9128 -0.4085 -90.4556 681.5845)" display="inline" cx="175.622" cy="370.102" rx="13.035" ry="19.811"/>
		
			<ellipse transform="matrix(-0.4085 0.9128 -0.9128 -0.4085 753.3924 252.2787)" display="inline" fill="#FFFFFF" cx="294.952" cy="370.257" rx="14.554" ry="22.119"/>
		
			<ellipse transform="matrix(-0.4085 0.9128 -0.9128 -0.4085 753.2859 251.8173)" display="inline" cx="295.048" cy="369.991" rx="12.96" ry="19.696"/>
	</g>
	<g id="blasé_1_">
		<path fill="#FFFFFF" d="M153.559,377.996c14.271-1.94,29.246-1.201,33.449,1.652c4.202,2.853-3.96,6.738-18.231,8.678
			c-14.271,1.94-29.246,1.201-33.449-1.652C131.125,383.822,139.288,379.937,153.559,377.996z"/>
		<path display="none" d="M157.822,372.523c10.731-3.2,21.991-1.98,25.151,2.725c3.16,4.705-2.978,11.114-13.708,14.315
			c-10.731,3.2-21.991,1.98-25.151-2.725C140.954,382.132,147.091,375.723,157.822,372.523z"/>
		<path fill="#FFFFFF" d="M305.454,388.316c-14.271-1.94-22.433-5.826-18.231-8.678s19.178-3.592,33.449-1.652
			c14.271,1.94,22.433,5.826,18.231,8.678S319.725,390.256,305.454,388.316z"/>
		<path display="none" d="M303.068,389.54c-10.731-3.2-16.868-9.609-13.708-14.315c3.16-4.705,14.42-5.925,25.151-2.725
			c10.731,3.2,16.868,9.609,13.708,14.315C325.059,391.52,313.798,392.74,303.068,389.54z"/>
	</g>
	<g id="yeux_1_" display="none">
		
			<ellipse transform="matrix(-0.4085 -0.9128 0.9128 -0.4085 -89.727 682.4199)" display="inline" fill="#FFFFFF" cx="176.257" cy="370.284" rx="14.554" ry="22.119"/>
		
			<ellipse transform="matrix(-0.4085 -0.9128 0.9128 -0.4085 -84.108 681.079)" display="inline" cx="178.632" cy="367.792" rx="10.943" ry="16.632"/>
		
			<ellipse transform="matrix(-0.4085 0.9128 -0.9128 -0.4085 753.3698 252.2934)" display="inline" fill="#FFFFFF" cx="294.936" cy="370.257" rx="14.554" ry="22.119"/>
		
			<ellipse transform="matrix(-0.4085 0.9128 -0.9128 -0.4085 747.1234 251.3588)" display="inline" cx="292.115" cy="367.765" rx="10.943" ry="16.632"/>
	</g>
	<g id="hearts" display="none">
		<g display="inline">
			<path fill="#E84392" d="M158.528,344.731c0.414,0,0.829,0,1.243,0c0.085,0.015,0.17,0.039,0.256,0.045
				c1.372,0.089,2.717,0.323,4.03,0.732c3.503,1.093,6.129,3.235,7.788,6.529c0.027,0.054,0.061,0.104,0.108,0.183
				c0.055-0.099,0.099-0.172,0.138-0.247c1.037-2.049,2.5-3.717,4.443-4.951c2.039-1.295,4.294-1.935,6.675-2.191
				c0.299-0.032,0.598-0.067,0.898-0.1c0.43,0,0.861,0,1.291,0c0.101,0.017,0.201,0.038,0.302,0.049
				c0.49,0.055,0.984,0.086,1.471,0.163c1.841,0.292,3.586,0.879,5.211,1.794c3.723,2.096,6.24,5.181,7.517,9.261
				c0.459,1.467,0.678,2.973,0.708,4.514c0.036,1.844-0.166,3.655-0.616,5.442c-0.621,2.465-1.617,4.776-2.869,6.981
				c-1.518,2.672-3.361,5.106-5.41,7.39c-2.572,2.866-5.416,5.441-8.434,7.826c-3.517,2.78-7.218,5.291-11.058,7.602
				c-0.195,0.117-0.357,0.104-0.551-0.007c-1.05-0.603-2.063-1.264-3.08-1.923c-3.681-2.385-7.231-4.947-10.556-7.813
				c-2.63-2.267-5.095-4.698-7.3-7.385c-1.779-2.167-3.363-4.465-4.639-6.967c-1.531-3.002-2.57-6.149-2.783-9.537
				c-0.009-0.141-0.053-0.279-0.08-0.419c0-0.462,0-0.924,0-1.386c0.019-0.084,0.046-0.168,0.055-0.253
				c0.048-0.451,0.082-0.903,0.138-1.353c0.202-1.63,0.638-3.196,1.326-4.688c2.468-5.354,7.642-8.888,13.525-9.246
				C158.358,344.771,158.443,344.747,158.528,344.731z"/>
		</g>
		<g display="inline">
			<path fill="#E84392" d="M282.736,344.731c0.414,0,0.829,0,1.243,0c0.085,0.015,0.17,0.039,0.256,0.045
				c1.372,0.089,2.717,0.323,4.03,0.732c3.503,1.093,6.129,3.235,7.788,6.529c0.027,0.054,0.061,0.104,0.108,0.183
				c0.055-0.099,0.099-0.172,0.138-0.247c1.037-2.049,2.5-3.717,4.443-4.951c2.039-1.295,4.294-1.935,6.675-2.191
				c0.299-0.032,0.598-0.067,0.897-0.1c0.43,0,0.861,0,1.291,0c0.101,0.017,0.201,0.038,0.302,0.049
				c0.49,0.055,0.984,0.086,1.471,0.163c1.841,0.292,3.586,0.879,5.211,1.794c3.723,2.096,6.24,5.181,7.517,9.261
				c0.459,1.467,0.678,2.973,0.708,4.514c0.036,1.844-0.166,3.655-0.616,5.442c-0.621,2.465-1.617,4.776-2.869,6.981
				c-1.518,2.672-3.361,5.106-5.41,7.39c-2.572,2.866-5.416,5.441-8.434,7.826c-3.517,2.78-7.218,5.291-11.058,7.602
				c-0.195,0.117-0.357,0.104-0.551-0.007c-1.05-0.603-2.063-1.264-3.08-1.923c-3.681-2.385-7.231-4.947-10.556-7.813
				c-2.63-2.267-5.095-4.698-7.3-7.385c-1.779-2.167-3.363-4.465-4.639-6.967c-1.531-3.002-2.57-6.149-2.783-9.537
				c-0.009-0.141-0.053-0.279-0.08-0.419c0-0.462,0-0.924,0-1.386c0.019-0.084,0.046-0.168,0.055-0.253
				c0.048-0.451,0.082-0.903,0.138-1.353c0.203-1.63,0.638-3.196,1.326-4.688c2.468-5.354,7.642-8.888,13.525-9.246
				C282.567,344.771,282.651,344.747,282.736,344.731z"/>
		</g>
	</g>
	<g>
		<ellipse fill="#E84392" cx="134.205" cy="410.214" rx="11.976" ry="4.29"/>
		<ellipse fill="#E84392" cx="335.999" cy="409.924" rx="11.976" ry="4.29"/>
	</g>
	<g display="none">
		<g display="inline">
			<path fill="#FFFFFF" d="M193.546,400.773c-0.693,1.389-2.235,1.869-3.444,1.072l-48.631-32.069
				c-1.209-0.797-1.626-2.569-0.933-3.959l0,0c0.693-1.389,2.235-1.869,3.444-1.072l48.631,32.069
				C193.822,397.612,194.24,399.384,193.546,400.773L193.546,400.773z"/>
			<path fill="#FFFFFF" d="M193.641,399.368c0.021-1.601-1.091-2.92-2.484-2.944l-56.059-0.991c-1.393-0.025-2.54,1.254-2.561,2.855
				l0,0c-0.021,1.601,1.091,2.92,2.484,2.944l56.059,0.991C192.473,402.248,193.619,400.969,193.641,399.368L193.641,399.368z"/>
		</g>
		<g display="inline">
			<path fill="#FFFFFF" d="M278.684,400.773c0.693,1.389,2.235,1.869,3.444,1.072l48.631-32.069
				c1.209-0.797,1.626-2.569,0.933-3.959l0,0c-0.693-1.389-2.235-1.869-3.444-1.072l-48.631,32.069
				C278.408,397.612,277.99,399.384,278.684,400.773L278.684,400.773z"/>
			<path fill="#FFFFFF" d="M278.589,399.368c-0.021-1.601,1.091-2.92,2.484-2.944l56.059-0.991c1.393-0.025,2.54,1.254,2.561,2.855
				l0,0c0.021,1.601-1.091,2.92-2.484,2.944l-56.059,0.991C279.757,402.248,278.611,400.969,278.589,399.368L278.589,399.368z"/>
		</g>
	</g>
</g>
<g id="smile">
	<g display="none">
		<path display="inline" fill="#FFFDFF" d="M270.253,428.186c0,0-0.015,0.388-0.101,1.06c-0.106,0.653-0.194,1.676-0.444,2.85
			c-0.105,0.606-0.26,1.238-0.42,1.936c-0.178,0.711-0.563,1.446-0.9,2.271c-0.733,1.594-1.693,3.553-2.956,5.223
			c-0.62,0.882-1.327,1.752-2.056,2.691c-0.748,0.914-1.675,1.676-2.578,2.567c-1.812,1.776-4.076,3.221-6.497,4.659
			c-1.215,0.715-2.566,1.201-3.909,1.778c-0.679,0.27-1.352,0.582-2.056,0.813c-0.72,0.181-1.442,0.363-2.167,0.546
			c-2.893,0.879-5.979,1.02-9.042,1.211c-1.531-0.113-3.061-0.227-4.587-0.34c-0.38-0.037-0.761-0.056-1.137-0.11l-1.113-0.254
			c-0.737-0.174-1.473-0.347-2.205-0.519c-0.728-0.181-1.456-0.344-2.167-0.547c-0.688-0.276-1.373-0.55-2.053-0.823
			c-1.343-0.572-2.7-1.047-3.903-1.788c-2.432-1.418-4.68-2.887-6.494-4.658c-0.456-0.43-0.904-0.855-1.347-1.274
			c-0.436-0.418-0.877-0.806-1.226-1.298c-0.73-0.936-1.441-1.798-2.059-2.683c-1.304-1.691-2.112-3.55-2.838-5.107
			c-0.331-0.811-0.688-1.502-0.891-2.247c-0.207-0.74-0.396-1.405-0.525-2.033c-0.299-1.218-0.397-2.25-0.507-2.902
			c-0.089-0.671-0.098-1.049-0.098-1.049l1.013-0.858c0,0,0.821,0.818,2.258,2.251c0.357,0.357,0.754,0.753,1.185,1.183
			c0.437,0.424,0.976,0.81,1.513,1.262c1.116,0.855,2.259,1.962,3.732,2.865c0.713,0.481,1.457,0.98,2.226,1.498
			c0.762,0.527,1.652,0.902,2.509,1.381c1.697,1.004,3.658,1.681,5.627,2.502c0.991,0.397,2.061,0.611,3.109,0.934
			c0.529,0.147,1.06,0.296,1.594,0.446c0.547,0.089,1.097,0.178,1.649,0.267l1.661,0.272c0.554,0.108,1.112,0.181,1.68,0.183
			c1.129,0.054,2.262,0.109,3.395,0.163c2.263-0.118,4.541-0.145,6.735-0.624c0.551-0.092,1.101-0.183,1.648-0.275
			c0.543-0.106,1.066-0.294,1.595-0.434c1.049-0.32,2.11-0.564,3.112-0.93c1.962-0.841,3.931-1.498,5.626-2.507
			c0.858-0.475,1.737-0.87,2.511-1.376c0.768-0.519,1.51-1.021,2.223-1.502c1.474-0.914,2.607-1.987,3.711-2.843
			c0.537-0.448,1.061-0.833,1.51-1.252c0.438-0.438,0.841-0.841,1.203-1.205c1.454-1.454,2.284-2.286,2.284-2.286L270.253,428.186z"
			/>
	</g>
	<path display="none" fill="#FFFFFF" stroke="#FFFFFF" stroke-miterlimit="10" d="M204.482,427.731h65.285
		c0,0-12.362,64.797-30.513,64.797C221.104,492.529,204.482,427.731,204.482,427.731z"/>
	<g display="none">
		<path display="inline" fill="#FFFDFF" d="M269.286,455.791c0,0-0.83-0.831-2.284-2.286c-0.363-0.364-0.765-0.766-1.203-1.205
			c-0.449-0.42-0.973-0.805-1.51-1.252c-1.104-0.857-2.237-1.93-3.711-2.843c-0.713-0.481-1.456-0.983-2.223-1.502
			c-0.774-0.506-1.654-0.9-2.511-1.376c-1.695-1.009-3.664-1.667-5.626-2.507c-1.001-0.365-2.063-0.61-3.112-0.93
			c-0.529-0.141-1.052-0.328-1.595-0.434c-0.547-0.092-1.097-0.183-1.648-0.275c-2.194-0.479-4.472-0.506-6.735-0.624
			c-1.133,0.054-2.266,0.109-3.395,0.163c-0.568,0.003-1.126,0.076-1.68,0.183l-1.661,0.272c-0.552,0.089-1.102,0.178-1.649,0.267
			c-0.534,0.15-1.065,0.299-1.594,0.446c-1.048,0.323-2.118,0.537-3.109,0.934c-1.97,0.821-3.93,1.498-5.627,2.502
			c-0.857,0.479-1.746,0.854-2.509,1.381c-0.769,0.518-1.513,1.017-2.226,1.498c-1.473,0.903-2.616,2.009-3.732,2.865
			c-0.537,0.452-1.076,0.838-1.513,1.262c-0.43,0.43-0.827,0.826-1.185,1.183c-1.437,1.433-2.258,2.251-2.258,2.251l-1.013-0.858
			c0,0,0.009-0.379,0.098-1.049c0.11-0.652,0.209-1.684,0.507-2.902c0.129-0.628,0.317-1.294,0.525-2.033
			c0.203-0.745,0.56-1.436,0.891-2.247c0.726-1.557,1.534-3.416,2.838-5.107c0.618-0.884,1.328-1.746,2.059-2.683
			c0.349-0.491,0.79-0.879,1.226-1.298c0.442-0.418,0.891-0.843,1.347-1.274c1.814-1.77,4.063-3.239,6.494-4.658
			c1.203-0.741,2.561-1.215,3.903-1.788c0.68-0.274,1.365-0.547,2.053-0.823c0.712-0.203,1.44-0.367,2.167-0.547
			c0.732-0.173,1.468-0.345,2.205-0.519l1.113-0.254c0.376-0.054,0.757-0.073,1.137-0.11c1.526-0.113,3.056-0.227,4.587-0.34
			c3.063,0.191,6.149,0.332,9.042,1.211c0.725,0.183,1.448,0.365,2.167,0.546c0.704,0.231,1.377,0.543,2.056,0.813
			c1.343,0.578,2.693,1.064,3.909,1.778c2.421,1.438,4.685,2.883,6.497,4.659c0.903,0.891,1.83,1.654,2.578,2.567
			c0.729,0.939,1.436,1.809,2.056,2.691c1.263,1.671,2.223,3.63,2.956,5.223c0.337,0.825,0.722,1.56,0.9,2.271
			c0.159,0.699,0.315,1.331,0.42,1.936c0.25,1.174,0.337,2.197,0.444,2.85c0.086,0.672,0.101,1.06,0.101,1.06L269.286,455.791z"/>
	</g>
	<path id="choc" display="none" fill="#FFFFFF" d="M252.742,438.372c0,14.67-7.401,26.562-16.532,26.562
		s-16.532-11.892-16.532-26.562s12.748-26.562,16.532-26.562C239.994,411.81,252.742,423.702,252.742,438.372z"/>
	<path id="blasé" fill="#FFFFFF" d="M280.973,425.344c0,2.061-2.839,3.732-6.34,3.732h-71.556c-3.502,0-6.34-1.671-6.34-3.732l0,0
		c0-2.061,2.839-3.732,6.34-3.732h71.556C278.135,421.612,280.973,423.283,280.973,425.344L280.973,425.344z"/>
</g>
</svg>
